<?xml version="1.0" encoding="UTF-8" standalone="no"?>
<!-- Created with Inkscape (http://www.inkscape.org/) -->

<svg
   xmlns:dc="http://purl.org/dc/elements/1.1/"
   xmlns:cc="http://creativecommons.org/ns#"
   xmlns:rdf="http://www.w3.org/1999/02/22-rdf-syntax-ns#"
   xmlns:svg="http://www.w3.org/2000/svg"
   xmlns="http://www.w3.org/2000/svg"
   xmlns:sodipodi="http://sodipodi.sourceforge.net/DTD/sodipodi-0.dtd"
   xmlns:inkscape="http://www.inkscape.org/namespaces/inkscape"
   version="1.1"
   id="svg1435"
   width="325.04889"
   height="301.30667">
  <metadata
     id="metadata1441">
    <rdf:RDF>
      <cc:Work
         rdf:about="">
        <dc:format>image/svg+xml</dc:format>
        <dc:type
           rdf:resource="http://purl.org/dc/dcmitype/StillImage" />
      </cc:Work>
    </rdf:RDF>
  </metadata>
  <defs
     id="defs1439" />
  <sodipodi:namedview
     pagecolor="#ffffff"
     bordercolor="#666666"
     borderopacity="1"
     objecttolerance="10"
     gridtolerance="10"
     guidetolerance="10"
     inkscape:pageopacity="0"
     inkscape:pageshadow="2"
     inkscape:window-width="640"
     inkscape:window-height="480"
     id="namedview1437" />
  <inkscape:clipboard
     style="font-variant-east_asian:normal;opacity:1;vector-effect:none;fill:#000000;fill-opacity:1;stroke:none;stroke-width:1.09092079;stroke-linecap:butt;stroke-linejoin:miter;stroke-miterlimit:4;stroke-dasharray:none;stroke-dashoffset:0;stroke-opacity:1"
     min="1693.0312,1032.686"
     max="2018.0801,1333.9927" />
  <g
     transform="matrix(1.0909208,0,0,1.0909208,-1193.2843,-1299.4126)"
     id="g1948-4-3-1"
     style="stroke:none">
    <g
       id="g1168-5-3-9">
      <circle
         style="opacity:1;fill:#46c307;fill-opacity:1;stroke:none;stroke-width:13.89754772;stroke-linecap:round;stroke-linejoin:miter;stroke-miterlimit:4;stroke-dasharray:none;stroke-opacity:1;paint-order:markers fill stroke"
         id="path1732-3-9-0-2-8-4"
         cx="1242.8112"
         cy="1333.7184"
         r="107.80693" />
      <g
         style="stroke:#fdffe6;stroke-width:1.17916453;stroke-miterlimit:4;stroke-dasharray:none;stroke-opacity:1"
         transform="matrix(0.59364065,0,0,0.59364065,1262.3288,1285.0843)"
         inkscape:transform-center-y="49.241898"
         inkscape:transform-center-x="-84.152199"
         id="g2676-1-6-9-5-0-7">
        <path
           style="opacity:1;fill:#fdffe6;fill-opacity:1;stroke:#fdffe6;stroke-width:1.17916453;stroke-linecap:round;stroke-linejoin:miter;stroke-miterlimit:4;stroke-dasharray:none;stroke-opacity:1;paint-order:markers fill stroke"
           inkscape:transform-center-x="-83.702267"
           inkscape:transform-center-y="49.202858"
           d="m 134.63444,81.966682 c 3.6136,35.805118 -6.97594,70.326348 -31.97237,98.400838 L -32.775059,81.966682 Z"
           id="path1917-26-8-7-8-54-1-4-5-8"
           inkscape:connector-curvature="0"
           sodipodi:nodetypes="cccc" />
        <path
           style="opacity:1;fill:#b7f07a;fill-opacity:1;stroke:#fdffe6;stroke-width:1.17916453;stroke-linecap:round;stroke-linejoin:miter;stroke-miterlimit:4;stroke-dasharray:none;stroke-opacity:1;paint-order:markers fill stroke"
           inkscape:transform-center-x="-64.474283"
           inkscape:transform-center-y="37.900035"
           d="m 116.69372,88.117973 c 6.01356,32.644277 -4.95989,57.060197 -24.627719,75.796317 L -12.258677,88.117973 Z"
           id="path1917-26-81-89-2-9-7-6-4"
           inkscape:connector-curvature="0"
           sodipodi:nodetypes="cccc" />
      </g>
      <g
         style="stroke:#fdffe6;stroke-width:1.17916453;stroke-miterlimit:4;stroke-dasharray:none;stroke-opacity:1"
         transform="matrix(0.48026537,0.34893322,-0.34893322,0.48026537,1287.1877,1305.8448)"
         inkscape:transform-center-y="79.701983"
         inkscape:transform-center-x="-67.777418"
         id="g2676-8-0-28-6-4-6-5">
        <path
           style="opacity:1;fill:#fdffe6;fill-opacity:1;stroke:#fdffe6;stroke-width:1.17916453;stroke-linecap:round;stroke-linejoin:miter;stroke-miterlimit:4;stroke-dasharray:none;stroke-opacity:1;paint-order:markers fill stroke"
           inkscape:transform-center-x="-83.702267"
           inkscape:transform-center-y="49.202858"
           d="m 134.63444,81.966682 c 3.6136,35.805118 -6.97594,70.326348 -31.97237,98.400838 L -32.775059,81.966682 Z"
           id="path1917-26-8-7-4-3-47-9-4-4-0"
           inkscape:connector-curvature="0"
           sodipodi:nodetypes="cccc" />
        <path
           style="opacity:1;fill:#b7f07a;fill-opacity:1;stroke:#fdffe6;stroke-width:1.17916453;stroke-linecap:round;stroke-linejoin:miter;stroke-miterlimit:4;stroke-dasharray:none;stroke-opacity:1;paint-order:markers fill stroke"
           inkscape:transform-center-x="-64.474283"
           inkscape:transform-center-y="37.900035"
           d="m 116.69372,88.117973 c 6.01356,32.644277 -4.95989,57.060197 -24.627719,75.796317 L -12.258677,88.117973 Z"
           id="path1917-26-81-8-7-9-3-3-0-3"
           inkscape:connector-curvature="0"
           sodipodi:nodetypes="cccc" />
      </g>
      <g
         style="stroke:#fdffe6;stroke-width:1.17916453;stroke-miterlimit:4;stroke-dasharray:none;stroke-opacity:1"
         transform="matrix(0.18344505,0.56458581,-0.56458581,0.18344505,1295.0962,1337.2521)"
         inkscape:transform-center-y="85.268925"
         inkscape:transform-center-x="0.0076615777"
         id="g2676-5-9-3-3-0-0-6">
        <path
           style="opacity:1;fill:#fdffe6;fill-opacity:1;stroke:#fdffe6;stroke-width:1.17916453;stroke-linecap:round;stroke-linejoin:miter;stroke-miterlimit:4;stroke-dasharray:none;stroke-opacity:1;paint-order:markers fill stroke"
           inkscape:transform-center-x="-83.702267"
           inkscape:transform-center-y="49.202858"
           d="m 134.63444,81.966682 c 3.6136,35.805118 -6.97594,70.326348 -31.97237,98.400838 L -32.775059,81.966682 Z"
           id="path1917-26-8-7-6-5-8-8-7-4-1"
           inkscape:connector-curvature="0"
           sodipodi:nodetypes="cccc" />
        <path
           style="opacity:1;fill:#b7f07a;fill-opacity:1;stroke:#fdffe6;stroke-width:1.17916453;stroke-linecap:round;stroke-linejoin:miter;stroke-miterlimit:4;stroke-dasharray:none;stroke-opacity:1;paint-order:markers fill stroke"
           inkscape:transform-center-x="-64.474283"
           inkscape:transform-center-y="37.900035"
           d="m 116.69372,88.117973 c 6.01356,32.644277 -4.95989,57.060197 -24.627719,75.796317 L -12.258677,88.117973 Z"
           id="path1917-26-81-9-2-1-0-86-6-0"
           inkscape:connector-curvature="0"
           sodipodi:nodetypes="cccc" />
      </g>
      <g
         style="stroke:#fdffe6;stroke-width:1.17916453;stroke-miterlimit:4;stroke-dasharray:none;stroke-opacity:1"
         transform="matrix(-0.18344505,0.56458581,-0.56458581,-0.18344505,1283.0336,1367.3097)"
         inkscape:transform-center-y="79.692982"
         inkscape:transform-center-x="67.78981"
         id="g2676-6-0-8-5-8-2-6">
        <path
           style="opacity:1;fill:#fdffe6;fill-opacity:1;stroke:#fdffe6;stroke-width:1.17916453;stroke-linecap:round;stroke-linejoin:miter;stroke-miterlimit:4;stroke-dasharray:none;stroke-opacity:1;paint-order:markers fill stroke"
           inkscape:transform-center-x="-83.702267"
           inkscape:transform-center-y="49.202858"
           d="m 134.63444,81.966682 c 3.6136,35.805118 -6.97594,70.326348 -31.97237,98.400838 L -32.775059,81.966682 Z"
           id="path1917-26-8-7-9-8-9-6-84-6-3"
           inkscape:connector-curvature="0"
           sodipodi:nodetypes="cccc" />
        <path
           style="opacity:1;fill:#b7f07a;fill-opacity:1;stroke:#fdffe6;stroke-width:1.17916453;stroke-linecap:round;stroke-linejoin:miter;stroke-miterlimit:4;stroke-dasharray:none;stroke-opacity:1;paint-order:markers fill stroke"
           inkscape:transform-center-x="-64.474283"
           inkscape:transform-center-y="37.900035"
           d="m 116.69372,88.117973 c 6.01356,32.644277 -4.95989,57.060197 -24.627719,75.796317 L -12.258677,88.117973 Z"
           id="path1917-26-81-7-3-92-6-3-7-2"
           inkscape:connector-curvature="0"
           sodipodi:nodetypes="cccc" />
      </g>
      <g
         style="stroke:#fdffe6;stroke-width:1.17916453;stroke-miterlimit:4;stroke-dasharray:none;stroke-opacity:1"
         transform="matrix(-0.48026537,0.34893322,-0.34893322,-0.48026537,1255.6074,1384.5365)"
         inkscape:transform-center-y="49.227337"
         inkscape:transform-center-x="84.151355"
         id="g2676-67-5-3-4-1-5-0">
        <path
           style="opacity:1;fill:#fdffe6;fill-opacity:1;stroke:#fdffe6;stroke-width:1.17916453;stroke-linecap:round;stroke-linejoin:miter;stroke-miterlimit:4;stroke-dasharray:none;stroke-opacity:1;paint-order:markers fill stroke"
           inkscape:transform-center-x="-83.702267"
           inkscape:transform-center-y="49.202858"
           d="m 134.63444,81.966682 c 3.6136,35.805118 -6.97594,70.326348 -31.97237,98.400838 L -32.775059,81.966682 Z"
           id="path1917-26-8-7-5-5-19-0-4-6-6"
           inkscape:connector-curvature="0"
           sodipodi:nodetypes="cccc" />
        <path
           style="opacity:1;fill:#b7f07a;fill-opacity:1;stroke:#fdffe6;stroke-width:1.17916453;stroke-linecap:round;stroke-linejoin:miter;stroke-miterlimit:4;stroke-dasharray:none;stroke-opacity:1;paint-order:markers fill stroke"
           inkscape:transform-center-x="-64.474283"
           inkscape:transform-center-y="37.900035"
           d="m 116.69372,88.117973 c 6.01356,32.644277 -4.95989,57.060197 -24.627719,75.796317 L -12.258677,88.117973 Z"
           id="path1917-26-81-3-7-6-0-9-9-1"
           inkscape:connector-curvature="0"
           sodipodi:nodetypes="cccc" />
      </g>
      <g
         style="stroke:#fdffe6;stroke-width:1.17916453;stroke-miterlimit:4;stroke-dasharray:none;stroke-opacity:1"
         transform="matrix(-0.59364065,0,0,-0.59364065,1223.2934,1382.3526)"
         inkscape:transform-center-y="-49.241901"
         inkscape:transform-center-x="84.152196"
         id="g2676-60-6-5-4-2-8-5">
        <path
           style="opacity:1;fill:#fdffe6;fill-opacity:1;stroke:#fdffe6;stroke-width:1.17916453;stroke-linecap:round;stroke-linejoin:miter;stroke-miterlimit:4;stroke-dasharray:none;stroke-opacity:1;paint-order:markers fill stroke"
           inkscape:transform-center-x="-83.702267"
           inkscape:transform-center-y="49.202858"
           d="m 134.63444,81.966682 c 3.6136,35.805118 -6.97594,70.326348 -31.97237,98.400838 L -32.775059,81.966682 Z"
           id="path1917-26-8-7-57-9-3-6-0-7-5"
           inkscape:connector-curvature="0"
           sodipodi:nodetypes="cccc" />
        <path
           style="opacity:1;fill:#b7f07a;fill-opacity:1;stroke:#fdffe6;stroke-width:1.17916453;stroke-linecap:round;stroke-linejoin:miter;stroke-miterlimit:4;stroke-dasharray:none;stroke-opacity:1;paint-order:markers fill stroke"
           inkscape:transform-center-x="-64.474283"
           inkscape:transform-center-y="37.900035"
           d="m 116.69372,88.117973 c 6.01356,32.644277 -4.95989,57.060197 -24.627719,75.796317 L -12.258677,88.117973 Z"
           id="path1917-26-81-99-3-2-2-68-2-4"
           inkscape:connector-curvature="0"
           sodipodi:nodetypes="cccc" />
      </g>
      <g
         style="stroke:#fdffe6;stroke-width:1.17916453;stroke-miterlimit:4;stroke-dasharray:none;stroke-opacity:1"
         transform="matrix(-0.48026537,-0.34893322,0.34893322,-0.48026537,1198.4346,1361.5921)"
         inkscape:transform-center-y="-79.701986"
         inkscape:transform-center-x="67.77742"
         id="g2676-3-8-4-6-9-8-7">
        <path
           style="opacity:1;fill:#fdffe6;fill-opacity:1;stroke:#fdffe6;stroke-width:1.17916453;stroke-linecap:round;stroke-linejoin:miter;stroke-miterlimit:4;stroke-dasharray:none;stroke-opacity:1;paint-order:markers fill stroke"
           inkscape:transform-center-x="-83.702267"
           inkscape:transform-center-y="49.202858"
           d="m 134.63444,81.966682 c 3.6136,35.805118 -6.97594,70.326348 -31.97237,98.400838 L -32.775059,81.966682 Z"
           id="path1917-26-8-7-1-5-2-7-2-2-6"
           inkscape:connector-curvature="0"
           sodipodi:nodetypes="cccc" />
        <path
           style="opacity:1;fill:#b7f07a;fill-opacity:1;stroke:#fdffe6;stroke-width:1.17916453;stroke-linecap:round;stroke-linejoin:miter;stroke-miterlimit:4;stroke-dasharray:none;stroke-opacity:1;paint-order:markers fill stroke"
           inkscape:transform-center-x="-64.474283"
           inkscape:transform-center-y="37.900035"
           d="m 116.69372,88.117973 c 6.01356,32.644277 -4.95989,57.060197 -24.627719,75.796317 L -12.258677,88.117973 Z"
           id="path1917-26-81-31-0-28-5-6-9-5"
           inkscape:connector-curvature="0"
           sodipodi:nodetypes="cccc" />
      </g>
      <g
         style="stroke:#fdffe6;stroke-width:1.17916453;stroke-miterlimit:4;stroke-dasharray:none;stroke-opacity:1"
         transform="matrix(-0.18344505,-0.56458581,0.56458581,-0.18344505,1190.526,1330.1848)"
         inkscape:transform-center-y="-85.268929"
         inkscape:transform-center-x="-0.0076605912"
         id="g2676-35-2-6-6-6-9-6">
        <path
           style="opacity:1;fill:#fdffe6;fill-opacity:1;stroke:#fdffe6;stroke-width:1.17916453;stroke-linecap:round;stroke-linejoin:miter;stroke-miterlimit:4;stroke-dasharray:none;stroke-opacity:1;paint-order:markers fill stroke"
           inkscape:transform-center-x="-83.702267"
           inkscape:transform-center-y="49.202858"
           d="m 134.63444,81.966682 c 3.6136,35.805118 -6.97594,70.326348 -31.97237,98.400838 L -32.775059,81.966682 Z"
           id="path1917-26-8-7-11-2-6-9-4-6-9"
           inkscape:connector-curvature="0"
           sodipodi:nodetypes="cccc" />
        <path
           style="opacity:1;fill:#b7f07a;fill-opacity:1;stroke:#fdffe6;stroke-width:1.17916453;stroke-linecap:round;stroke-linejoin:miter;stroke-miterlimit:4;stroke-dasharray:none;stroke-opacity:1;paint-order:markers fill stroke"
           inkscape:transform-center-x="-64.474283"
           inkscape:transform-center-y="37.900035"
           d="m 116.69372,88.117973 c 6.01356,32.644277 -4.95989,57.060197 -24.627719,75.796317 L -12.258677,88.117973 Z"
           id="path1917-26-81-2-0-7-8-9-0-3"
           inkscape:connector-curvature="0"
           sodipodi:nodetypes="cccc" />
      </g>
      <g
         style="stroke:#fdffe6;stroke-width:1.17916453;stroke-miterlimit:4;stroke-dasharray:none;stroke-opacity:1"
         transform="matrix(0.18344505,-0.56458581,0.56458581,0.18344505,1202.5886,1300.1273)"
         inkscape:transform-center-y="-79.692986"
         inkscape:transform-center-x="-67.789812"
         id="g2676-606-7-7-7-5-2-7">
        <path
           style="opacity:1;fill:#fdffe6;fill-opacity:1;stroke:#fdffe6;stroke-width:1.17916453;stroke-linecap:round;stroke-linejoin:miter;stroke-miterlimit:4;stroke-dasharray:none;stroke-opacity:1;paint-order:markers fill stroke"
           inkscape:transform-center-x="-83.702267"
           inkscape:transform-center-y="49.202858"
           d="m 134.63444,81.966682 c 3.6136,35.805118 -6.97594,70.326348 -31.97237,98.400838 L -32.775059,81.966682 Z"
           id="path1917-26-8-7-44-0-2-2-0-7-4"
           inkscape:connector-curvature="0"
           sodipodi:nodetypes="cccc" />
        <path
           style="opacity:1;fill:#b7f07a;fill-opacity:1;stroke:#fdffe6;stroke-width:1.17916453;stroke-linecap:round;stroke-linejoin:miter;stroke-miterlimit:4;stroke-dasharray:none;stroke-opacity:1;paint-order:markers fill stroke"
           inkscape:transform-center-x="-64.474283"
           inkscape:transform-center-y="37.900035"
           d="m 116.69372,88.117973 c 6.01356,32.644277 -4.95989,57.060197 -24.627719,75.796317 L -12.258677,88.117973 Z"
           id="path1917-26-81-6-8-3-8-4-6-5"
           inkscape:connector-curvature="0"
           sodipodi:nodetypes="cccc" />
      </g>
      <g
         style="stroke:#fdffe6;stroke-width:1.17916453;stroke-miterlimit:4;stroke-dasharray:none;stroke-opacity:1"
         transform="matrix(0.48026537,-0.34893322,0.34893322,0.48026537,1230.0148,1282.9004)"
         inkscape:transform-center-y="-49.227338"
         inkscape:transform-center-x="-84.15136"
         id="g2676-0-1-2-2-8-1-2">
        <path
           style="opacity:1;fill:#fdffe6;fill-opacity:1;stroke:#fdffe6;stroke-width:1.17916453;stroke-linecap:round;stroke-linejoin:miter;stroke-miterlimit:4;stroke-dasharray:none;stroke-opacity:1;paint-order:markers fill stroke"
           inkscape:transform-center-x="-83.702267"
           inkscape:transform-center-y="49.202858"
           d="m 134.63444,81.966682 c 3.6136,35.805118 -6.97594,70.326348 -31.97237,98.400838 L -32.775059,81.966682 Z"
           id="path1917-26-8-7-2-5-6-9-7-3-5"
           inkscape:connector-curvature="0"
           sodipodi:nodetypes="cccc" />
        <path
           style="opacity:1;fill:#b7f07a;fill-opacity:1;stroke:#fdffe6;stroke-width:1.17916453;stroke-linecap:round;stroke-linejoin:miter;stroke-miterlimit:4;stroke-dasharray:none;stroke-opacity:1;paint-order:markers fill stroke"
           inkscape:transform-center-x="-64.474283"
           inkscape:transform-center-y="37.900035"
           d="m 116.69372,88.117973 c 6.01356,32.644277 -4.95989,57.060197 -24.627719,75.796317 L -12.258677,88.117973 Z"
           id="path1917-26-81-66-2-7-9-1-2-4"
           inkscape:connector-curvature="0"
           sodipodi:nodetypes="cccc" />
      </g>
    </g>
  </g>
  <path
     sodipodi:nodetypes="ccccssssccccscssccccccccsscsccccccssccc"
     inkscape:connector-curvature="0"
     id="path970-8-9-2"
     d="m 279.6973,125.43202 c 1.1408,3.22602 1.2684,5.43692 1.7676,7.36328 14.7773,3.56291 19.3622,6.30013 26.8828,10.67773 7.4938,4.36204 10.6127,8.63283 10.6348,12.06055 v 0.0352 c 0,3.43388 -3.1122,7.71615 -10.6328,12.09375 -7.5206,4.3776 -18.9806,8.58553 -33.7579,12.14844 -29.5546,7.12582 -69.9622,11.17969 -112.0683,11.17969 -18.1815,0 -33.8507,-0.75048 -50.6817,-2.1836 l -0.4238,-0.0566 -2.3789,5.92774 2.2891,0.17187 c 16.9701,1.44496 32.8466,2.20508 51.1953,2.20508 42.4934,0 83.222,-4.04832 113.4883,-11.3457 15.1331,-3.64871 27.0298,-7.93724 35.3886,-12.80274 8.3588,-4.86551 13.6485,-10.57302 13.6485,-17.33789 v -3.03321 h -0.3809 c -1.3279,-5.45758 -6.1868,-10.18536 -13.2637,-14.30468 -8.3587,-4.86551 -16.5739,-9.15014 -31.707,-12.79883 z m -234.3437,0.24414 c -15.1331,3.64869 -23.3463,7.68918 -31.7051,12.55469 -7.0768,4.11926 -11.9399,8.8472 -13.2695,14.30468 H 0 v 2.9961 0.0391 0.0449 c 0.025,6.74417 5.3072,12.43686 13.6465,17.29101 8.3588,4.86551 20.2536,9.15404 35.3867,12.80274 14.516,2.69096 14.6915,2.97831 27.987,5.24675 l 2.6582,-5.73633 C 67.7567,183.41509 56.9812,181.38162 50.4551,179.81092 35.6778,176.248 24.2178,172.04008 16.6973,167.66248 9.1865,163.2906 6.0706,159.01402 6.0625,155.58241 v -0.0117 c 0,-3.43389 3.1102,-7.72006 10.6308,-12.09766 7.5206,-4.3776 12.1055,-7.85115 26.8828,-11.41406 0.4493,-2.86097 1.3431,-4.80972 1.7735,-6.38281 z"
     style="color:#000000;font-style:normal;font-variant:normal;font-weight:normal;font-stretch:normal;font-size:medium;line-height:normal;font-family:sans-serif;font-variant-ligatures:normal;font-variant-position:normal;font-variant-caps:normal;font-variant-numeric:normal;font-variant-alternates:normal;font-feature-settings:normal;text-indent:0;text-align:start;text-decoration:none;text-decoration-line:none;text-decoration-style:solid;text-decoration-color:#000000;letter-spacing:normal;word-spacing:normal;text-transform:none;writing-mode:lr-tb;direction:ltr;text-orientation:mixed;dominant-baseline:auto;baseline-shift:baseline;text-anchor:start;white-space:normal;shape-padding:0;clip-rule:nonzero;display:inline;overflow:visible;visibility:visible;opacity:1;isolation:auto;mix-blend-mode:normal;color-interpolation:sRGB;color-interpolation-filters:linearRGB;solid-color:#000000;solid-opacity:1;vector-effect:none;fill:#5dc3d0;fill-opacity:1;fill-rule:nonzero;stroke:none;stroke-width:6.06515121;stroke-linecap:round;stroke-linejoin:miter;stroke-miterlimit:4;stroke-dasharray:none;stroke-dashoffset:0;stroke-opacity:1;paint-order:markers fill stroke;color-rendering:auto;image-rendering:auto;shape-rendering:auto;text-rendering:auto;enable-background:accumulate" />
  <path
     id="path970-8-8-6-9"
     d="m 88.5333,13.062874 c -2.6344,-0.0616 -5.0746,0.48745 -7.2715,1.75586 -8e-4,4.5e-4 0,0.001 0,0.002 l -2.623,1.51367 0.1894,0.32812 c -4.0646,3.87823 -5.7248,10.45024 -5.7539,18.64258 -0.034,9.67166 1.3121,19.08561 5.7188,34.01563 1.5834,-1.49478 3.0753,-2.98235 4.9687,-4.47657 -4.303,-14.57899 -4.65,-20.81381 -4.6191,-29.51562 0.03,-8.66309 2.16,-13.49739 5.1133,-15.23438 l 0.041,-0.0234 c 2.9738,-1.71693 8.2396,-1.16213 15.791,3.16211 7.5514,4.32419 16.9261,12.14603 27.4004,23.16211 20.9484,22.03215 44.6618,54.997936 65.7148,91.462886 8.6732,15.02235 17.468,31.21043 24.377,45.77539 l 1.0703,2.28125 c 2.353,-0.1971 4.5043,-0.39471 6.3984,-0.5918 l -1.9883,-4.28906 c -7.0171,-14.79303 -15.8769,-31.08877 -24.6054,-46.20703 -21.2467,-36.800336 -45.1195,-70.048686 -66.5723,-92.611326 -10.7264,-11.28133 -20.3882,-19.4399 -28.7812,-24.2461 -5.2457,-3.00381 -10.176,-4.80367 -14.5664,-4.90625 z M 228.4629,196.09413 c -2.2452,0.32266 -4.2517,0.52637 -6.1933,0.69726 l 1.668,3.81446 c 6.5861,15.14953 11.8781,27.23337 15.6152,39.89453 4.3031,14.57898 6.3882,26.60677 6.3574,35.30859 -0.03,8.69821 -2.1804,13.53705 -5.1523,15.25586 0,0.001 0,8.7e-4 -0.01,0.002 -2.9739,1.71695 -8.2376,1.16405 -15.7891,-3.16016 -7.5513,-4.3242 -13.3695,-7.20073 -23.8437,-18.21679 -4.5082,1.78104 -4.4817,1.56999 -6.041,2.0957 10.7264,11.28131 18.48,16.5786 26.873,21.38477 7.1082,4.07042 13.6306,5.91963 19.0215,4.33984 l 0.1875,0.32422 2.5625,-1.48047 c 0.02,-0.0116 0.042,-0.0195 0.062,-0.0312 0.021,-0.0119 0.035,-0.027 0.055,-0.0391 5.8167,-3.39757 8.1026,-10.81267 8.1367,-20.45313 0.034,-9.67167 -2.2006,-22.11686 -6.6074,-37.04687 -3.8798,-13.14505 -9.2873,-25.45599 -15.8692,-40.5957 z"
     style="color:#000000;font-style:normal;font-variant:normal;font-weight:normal;font-stretch:normal;font-size:medium;line-height:normal;font-family:sans-serif;font-variant-ligatures:normal;font-variant-position:normal;font-variant-caps:normal;font-variant-numeric:normal;font-variant-alternates:normal;font-feature-settings:normal;text-indent:0;text-align:start;text-decoration:none;text-decoration-line:none;text-decoration-style:solid;text-decoration-color:#000000;letter-spacing:normal;word-spacing:normal;text-transform:none;writing-mode:lr-tb;direction:ltr;text-orientation:mixed;dominant-baseline:auto;baseline-shift:baseline;text-anchor:start;white-space:normal;shape-padding:0;clip-rule:nonzero;display:inline;overflow:visible;visibility:visible;opacity:1;isolation:auto;mix-blend-mode:normal;color-interpolation:sRGB;color-interpolation-filters:linearRGB;solid-color:#000000;solid-opacity:1;vector-effect:none;fill:#5dc3d0;fill-opacity:1;fill-rule:nonzero;stroke:none;stroke-width:6.06515121;stroke-linecap:round;stroke-linejoin:miter;stroke-miterlimit:4;stroke-dasharray:none;stroke-dashoffset:0;stroke-opacity:1;paint-order:markers fill stroke;color-rendering:auto;image-rendering:auto;shape-rendering:auto;text-rendering:auto;enable-background:accumulate"
     inkscape:connector-curvature="0" />
  <path
     sodipodi:nodetypes="csccccccccccccccccccccscccccccccccccssccccc"
     inkscape:connector-curvature="0"
     id="path970-8-4-9-3"
     d="M 228.6973,3.7363838e-4 C 223.5344,0.09187364 218.0185,2.1963236 212.4942,5.3597536 203.6553,10.421254 193.8405,18.758254 182.9805,30.180064 c -8.6488,9.0963 -17.6374,19.85982 -26.6875,31.86133 l -1.5097,2.04687 c 2.4766,3.58413 12.9532,16.84721 15.58,20.28125 l 3.7598,-4.98632 c 8.8167,-11.69193 17.5324,-22.11224 25.7676,-30.77344 10.3406,-10.87559 19.5624,-18.52096 26.6679,-22.58984 7.1056,-4.06889 11.1423,-4.00065 12.5879,-3.16602 l 0.035,0.0195 c 0.3137,0.18576 0.6002,0.42494 0.9277,0.82031 1.3328,1.60903 2.8993,6.56137 2.5254,14.55078 -0.3738,7.98942 -0.2562,10.88478 -4.0256,23.6556 3.9572,3.38959 7.2986,6.47127 10.3323,9.39909 3.9587,-13.41231 5.7224,-22.94312 6.1679,-32.46484 0.4456,-9.52172 -0.6217,-17.36929 -5.373,-23.10547 -0.4351,-0.52522 -0.9161,-1.01508 -1.416,-1.48633 -0.5629,-0.69347 -1.2864,-1.53836 -2.4063,-2.72656 C 241.1785,6.4918836 231.7949,-0.05460636 228.6971,3.4363838e-4 Z M 146.0821,72.693734 l -7.334,10.85938 c -9.5446,14.13076 -14.1334,18.914156 -27.2109,43.283196 -13.0775,24.36905 -38.2937,74.42038 -47.2168,104.65235 -4.4616,15.11598 -6.7744,27.78523 -6.7383,37.9707 0.038,10.18547 1.0214,20.20986 8.4082,24.47461 4.5765,2.62983 10.023,4.63887 16.2969,6.38086 v -0.002 c 6.8048,2.45754 14.5964,0.11398 22.4082,-4.35937 8.8389,-5.06149 17.2934,-11.89327 28.1534,-23.31511 -5.4832,-1.43019 -9.5279,-2.68678 -12.7037,-4.11697 -10.3406,10.87557 -14.5531,12.52529 -21.6587,16.59418 -7.1055,4.0689 -11.1403,4.0026 -12.5859,3.16797 -5e-4,-3e-4 0,3.1e-4 0,0 v -0.004 c -1.4454,-0.83884 -3.5179,-4.30029 -3.5468,-12.48047 -0.03,-8.18802 1.9803,-19.9976 6.2285,-34.39062 8.4964,-28.78606 25.1023,-65.65609 46.0527,-101.94336 9.0065,-15.59975 17.1436,-28.73532 26.6465,-42.394526 l 1.2617,-2.06641 c -2.1634,-3.3027 -13.3835,-18.40871 -16.457,-22.31055 z"
     style="color:#000000;font-style:normal;font-variant:normal;font-weight:normal;font-stretch:normal;font-size:medium;line-height:normal;font-family:sans-serif;font-variant-ligatures:normal;font-variant-position:normal;font-variant-caps:normal;font-variant-numeric:normal;font-variant-alternates:normal;font-feature-settings:normal;text-indent:0;text-align:start;text-decoration:none;text-decoration-line:none;text-decoration-style:solid;text-decoration-color:#000000;letter-spacing:normal;word-spacing:normal;text-transform:none;writing-mode:lr-tb;direction:ltr;text-orientation:mixed;dominant-baseline:auto;baseline-shift:baseline;text-anchor:start;white-space:normal;shape-padding:0;clip-rule:nonzero;display:inline;overflow:visible;visibility:visible;opacity:1;isolation:auto;mix-blend-mode:normal;color-interpolation:sRGB;color-interpolation-filters:linearRGB;solid-color:#000000;solid-opacity:1;vector-effect:none;fill:#5dc3d0;fill-opacity:1;fill-rule:nonzero;stroke:none;stroke-width:12.49132824;stroke-linecap:round;stroke-linejoin:miter;stroke-miterlimit:4;stroke-dasharray:none;stroke-dashoffset:0;stroke-opacity:1;paint-order:markers fill stroke;color-rendering:auto;image-rendering:auto;shape-rendering:auto;text-rendering:auto;enable-background:accumulate" />
</svg>
