<?xml version="1.0" encoding="UTF-8" standalone="no"?>
<!-- Created with Inkscape (http://www.inkscape.org/) -->

<svg
   xmlns:dc="http://purl.org/dc/elements/1.1/"
   xmlns:cc="http://creativecommons.org/ns#"
   xmlns:rdf="http://www.w3.org/1999/02/22-rdf-syntax-ns#"
   xmlns:svg="http://www.w3.org/2000/svg"
   xmlns="http://www.w3.org/2000/svg"
   xmlns:sodipodi="http://sodipodi.sourceforge.net/DTD/sodipodi-0.dtd"
   xmlns:inkscape="http://www.inkscape.org/namespaces/inkscape"
   version="1.1"
   id="svg1412"
   width="326.04889"
   height="302.30869">
  <metadata
     id="metadata1418">
    <rdf:RDF>
      <cc:Work
         rdf:about="">
        <dc:format>image/svg+xml</dc:format>
        <dc:type
           rdf:resource="http://purl.org/dc/dcmitype/StillImage" />
      </cc:Work>
    </rdf:RDF>
  </metadata>
  <defs
     id="defs1416" />
  <sodipodi:namedview
     pagecolor="#ffffff"
     bordercolor="#666666"
     borderopacity="1"
     objecttolerance="10"
     gridtolerance="10"
     guidetolerance="10"
     inkscape:pageopacity="0"
     inkscape:pageshadow="2"
     inkscape:window-width="640"
     inkscape:window-height="480"
     id="namedview1414" />
  <inkscape:clipboard
     style="font-variant-east_asian:normal;opacity:1;vector-effect:none;fill:none;fill-opacity:1;stroke:#46c307;stroke-width:0.99999995;stroke-linecap:round;stroke-linejoin:miter;stroke-miterlimit:4;stroke-dasharray:none;stroke-dashoffset:0;stroke-opacity:1;paint-order:markers fill stroke"
     min="1296.3653,1035.2126"
     max="1622.4142,1337.5213" />
  <circle
     style="opacity:1;fill:none;fill-opacity:1;stroke:#46c307;stroke-width:0.99999994;stroke-linecap:round;stroke-linejoin:miter;stroke-miterlimit:4;stroke-dasharray:none;stroke-opacity:1;paint-order:markers fill stroke"
     id="path1732-3-9-0-2-8-4-6"
     cx="163.0242"
     cy="156.06845"
     r="117.60883" />
  <path
     sodipodi:nodetypes="cccccscccccc"
     inkscape:connector-curvature="0"
     id="path1917-26-8-7-8-54-1-4-5-8-9"
     d="m 196.54286,259.24577 c 23.8047,-5.19986 42.4942,-19.25564 54.2451,-39.40722 16.2027,-18.19806 23.06,-40.55524 20.7217,-63.76563 2.4116,-24.24667 -5.1823,-46.36319 -20.7168,-63.766598 -12.3009,-21.03368 -31.4445,-34.46452 -54.2412,-39.41211 -11.1675,-4.8965 -22.5854,-7.24359 -33.8838,-7.19531 -11.2983,0.0483 -22.4757,2.49192 -33.1621,7.19238 -23.8047,5.19889 -42.494196,19.25467 -54.245096,39.40722 -16.2027,18.199038 -23.06,40.554258 -20.7218,63.764658 -2.4115,24.24667 5.1824,46.36514 20.7169,63.76757 12.3009,21.0327 31.442596,34.46355 54.240196,39.41211 22.3155,9.78617 45.6955,9.39994 67.0469,0.003 z"
     style="opacity:1;fill:none;fill-opacity:1;stroke:#fdffe6;stroke-width:1;stroke-linecap:round;stroke-linejoin:miter;stroke-miterlimit:4;stroke-dasharray:none;stroke-opacity:1;paint-order:markers fill stroke" />
  <path
     sodipodi:nodetypes="cccc"
     inkscape:connector-curvature="0"
     id="path1917-26-81-89-2-9-7-6-4-9"
     d="m 259.88905,160.07902 c 3.89447,21.14093 -3.2121,36.95304 -15.94926,49.08683 l -67.56223,-49.08683 z"
     inkscape:transform-center-y="37.900035"
     inkscape:transform-center-x="-64.474283"
     style="opacity:1;fill:none;fill-opacity:1;stroke:#b7f07a;stroke-width:0.99999994;stroke-linecap:round;stroke-linejoin:miter;stroke-miterlimit:4;stroke-dasharray:none;stroke-opacity:1;paint-order:markers fill stroke" />
  <path
     sodipodi:nodetypes="cccc"
     inkscape:connector-curvature="0"
     id="path1917-26-81-8-7-9-3-3-0-3-1"
     d="m 239.03219,216.24881 c -9.27565,19.39248 -24.31911,28.00761 -41.75577,30.33733 l -25.80647,-79.42416 z"
     inkscape:transform-center-y="37.900035"
     inkscape:transform-center-x="-64.474283"
     style="opacity:1;fill:none;fill-opacity:1;stroke:#b7f07a;stroke-width:0.99999994;stroke-linecap:round;stroke-linejoin:miter;stroke-miterlimit:4;stroke-dasharray:none;stroke-opacity:1;paint-order:markers fill stroke" />
  <path
     sodipodi:nodetypes="cccc"
     inkscape:connector-curvature="0"
     id="path1917-26-81-9-2-1-0-86-6-0-1"
     d="m 189.1428,249.43178 c -18.90274,10.23676 -36.13701,8.36423 -51.61293,0 l 25.80647,-79.42415 z"
     inkscape:transform-center-y="37.900035"
     inkscape:transform-center-x="-64.474283"
     style="opacity:1;fill:none;fill-opacity:1;stroke:#b7f07a;stroke-width:0.99999994;stroke-linecap:round;stroke-linejoin:miter;stroke-miterlimit:4;stroke-dasharray:none;stroke-opacity:1;paint-order:markers fill stroke" />
  <path
     sodipodi:nodetypes="cccc"
     inkscape:connector-curvature="0"
     id="path1917-26-81-7-3-92-6-3-7-2-4"
     d="m 129.27705,246.95319 c -21.30966,-2.82904 -34.151852,-14.474 -41.755733,-30.33733 l 67.562193,-49.08682 z"
     inkscape:transform-center-y="37.900035"
     inkscape:transform-center-x="-64.474283"
     style="opacity:1;fill:none;fill-opacity:1;stroke:#b7f07a;stroke-width:0.99999994;stroke-linecap:round;stroke-linejoin:miter;stroke-miterlimit:4;stroke-dasharray:none;stroke-opacity:1;paint-order:markers fill stroke" />
  <path
     sodipodi:nodetypes="cccc"
     inkscape:connector-curvature="0"
     id="path1917-26-81-3-7-6-0-9-9-1-9"
     d="M 82.301525,209.75966 C 66.724505,194.94541 63.179723,177.976 66.352259,160.67283 h 83.511501 z"
     inkscape:transform-center-y="37.900035"
     inkscape:transform-center-x="-64.474283"
     style="opacity:1;fill:none;fill-opacity:1;stroke:#b7f07a;stroke-width:0.99999994;stroke-linecap:round;stroke-linejoin:miter;stroke-miterlimit:4;stroke-dasharray:none;stroke-opacity:1;paint-order:markers fill stroke" />
  <path
     sodipodi:nodetypes="cccc"
     inkscape:connector-curvature="0"
     id="path1917-26-81-99-3-2-2-68-2-4-6"
     d="M 66.159314,152.058 C 62.264851,130.91708 69.371421,115.10497 82.10858,102.97118 L 149.67081,152.058 Z"
     inkscape:transform-center-y="37.900035"
     inkscape:transform-center-x="-64.474283"
     style="opacity:1;fill:none;fill-opacity:1;stroke:#b7f07a;stroke-width:0.99999994;stroke-linecap:round;stroke-linejoin:miter;stroke-miterlimit:4;stroke-dasharray:none;stroke-opacity:1;paint-order:markers fill stroke" />
  <path
     sodipodi:nodetypes="cccc"
     inkscape:connector-curvature="0"
     id="path1917-26-81-31-0-28-5-6-9-5-3"
     d="M 87.016259,95.888219 C 96.2919,76.495738 111.33536,67.880608 128.77203,65.550892 l 25.80646,79.424148 z"
     inkscape:transform-center-y="37.900035"
     inkscape:transform-center-x="-64.474283"
     style="opacity:1;fill:none;fill-opacity:1;stroke:#b7f07a;stroke-width:0.99999994;stroke-linecap:round;stroke-linejoin:miter;stroke-miterlimit:4;stroke-dasharray:none;stroke-opacity:1;paint-order:markers fill stroke" />
  <path
     sodipodi:nodetypes="cccc"
     inkscape:connector-curvature="0"
     id="path1917-26-81-2-0-7-8-9-0-3-5"
     d="m 136.90553,62.705248 c 18.90274,-10.236764 36.13701,-8.364227 51.61293,3e-6 L 162.712,142.1294 Z"
     inkscape:transform-center-y="37.900035"
     inkscape:transform-center-x="-64.474283"
     style="opacity:1;fill:none;fill-opacity:1;stroke:#b7f07a;stroke-width:0.99999994;stroke-linecap:round;stroke-linejoin:miter;stroke-miterlimit:4;stroke-dasharray:none;stroke-opacity:1;paint-order:markers fill stroke" />
  <path
     sodipodi:nodetypes="cccc"
     inkscape:connector-curvature="0"
     id="path1917-26-81-6-8-3-8-4-6-5-4"
     d="m 196.77132,65.183945 c 21.30966,2.829041 34.15185,14.474003 41.75573,30.337331 L 170.96486,144.6081 Z"
     inkscape:transform-center-y="37.900035"
     inkscape:transform-center-x="-64.474283"
     style="opacity:1;fill:none;fill-opacity:1;stroke:#b7f07a;stroke-width:0.99999994;stroke-linecap:round;stroke-linejoin:miter;stroke-miterlimit:4;stroke-dasharray:none;stroke-opacity:1;paint-order:markers fill stroke" />
  <path
     sodipodi:nodetypes="cccc"
     inkscape:connector-curvature="0"
     id="path1917-26-81-66-2-7-9-1-2-4-4"
     d="m 243.74681,102.37737 c 15.57702,14.81425 19.1218,31.78366 15.94926,49.08683 h -83.51149 z"
     inkscape:transform-center-y="37.900035"
     inkscape:transform-center-x="-64.474283"
     style="opacity:1;fill:none;fill-opacity:1;stroke:#b7f07a;stroke-width:0.99999994;stroke-linecap:round;stroke-linejoin:miter;stroke-miterlimit:4;stroke-dasharray:none;stroke-opacity:1;paint-order:markers fill stroke" />
  <path
     sodipodi:nodetypes="ccccssssccccscssccccccccsscsccccccssccc"
     inkscape:connector-curvature="0"
     id="path970-8-9-2-6"
     d="m 280.19729,125.93192 c 1.14081,3.22602 1.26841,5.43692 1.76761,7.36328 14.77731,3.56291 19.36222,6.30013 26.88279,10.67773 7.49383,4.36204 10.61273,8.63283 10.6348,12.06055 v 0.0352 c 0,3.43388 -3.11217,7.71615 -10.63279,12.09375 -7.52058,4.3776 -18.9806,8.58553 -33.75791,12.14844 -29.55458,7.12582 -69.96219,11.17969 -112.06829,11.17969 -18.18149,0 -33.85069,-0.75048 -50.68168,-2.1836 l -0.4238,-0.0566 -2.37891,5.92774 2.28911,0.17186 c 16.97007,1.44496 32.84658,2.20508 51.19528,2.20508 42.49338,0 83.22199,-4.04832 113.4883,-11.3457 15.13311,-3.64872 27.02982,-7.93724 35.38862,-12.80274 8.35876,-4.86551 13.64848,-10.57302 13.64848,-17.33789 v -3.03317 h -0.3809 c -1.3279,-5.45758 -6.18679,-10.18536 -13.26369,-14.30468 -8.35873,-4.86551 -16.57391,-9.15014 -31.70702,-12.79883 z m -234.343677,0.24412 c -15.133115,3.64869 -23.346331,7.68918 -31.705096,12.55469 -7.0768256,4.11926 -11.939906,8.8472 -13.26950599,14.30468 H 0.49999998 v 2.9961 0.0391 0.0449 c 0.0264567,6.74417 5.30721262,12.43686 13.64651402,17.29101 8.358803,4.86551 20.253581,9.15405 35.386696,12.80275 14.515994,2.69095 14.691477,2.9783 27.986986,5.24674 l 2.658217,-5.73633 C 68.256687,183.91497 57.481216,181.8815 50.955106,180.3108 36.177796,176.74788 24.717814,172.53996 17.19731,168.16236 9.686482,163.79048 6.5706016,159.5139 6.5625134,156.08229 v -0.0117 c 0,-3.43389 3.1101733,-7.72006 10.6307906,-12.09766 7.52058,-4.37761 12.105487,-7.85115 26.882797,-11.41407 0.44931,-2.86097 1.343093,-4.80971 1.773506,-6.3828 z"
     style="color:#000000;font-style:normal;font-variant:normal;font-weight:normal;font-stretch:normal;font-size:medium;line-height:normal;font-family:sans-serif;font-variant-ligatures:normal;font-variant-position:normal;font-variant-caps:normal;font-variant-numeric:normal;font-variant-alternates:normal;font-feature-settings:normal;text-indent:0;text-align:start;text-decoration:none;text-decoration-line:none;text-decoration-style:solid;text-decoration-color:#000000;letter-spacing:normal;word-spacing:normal;text-transform:none;writing-mode:lr-tb;direction:ltr;text-orientation:mixed;dominant-baseline:auto;baseline-shift:baseline;text-anchor:start;white-space:normal;shape-padding:0;clip-rule:nonzero;display:inline;overflow:visible;visibility:visible;opacity:1;isolation:auto;mix-blend-mode:normal;color-interpolation:sRGB;color-interpolation-filters:linearRGB;solid-color:#000000;solid-opacity:1;vector-effect:none;fill:none;fill-opacity:1;fill-rule:nonzero;stroke:#5dc3d0;stroke-width:0.99999994;stroke-linecap:round;stroke-linejoin:miter;stroke-miterlimit:4;stroke-dasharray:none;stroke-dashoffset:0;stroke-opacity:1;paint-order:markers fill stroke;color-rendering:auto;image-rendering:auto;shape-rendering:auto;text-rendering:auto;enable-background:accumulate" />
  <path
     id="path970-8-8-6-9-2"
     d="m 89.033317,13.562775 c -2.634406,-0.06161 -5.07462,0.48745 -7.271508,1.755859 -7.94e-4,4.5e-4 0,0.001 0,0.002 l -2.622992,1.513671 0.189354,0.328101 c -4.064617,3.87823 -5.724813,10.450239 -5.753915,18.64258 -0.03402,9.67166 1.312101,19.085609 5.718803,34.015631 1.583395,-1.49478 3.075288,-2.982353 4.968718,-4.47657 -4.30303,-14.578991 -4.650028,-20.81381 -4.619112,-29.51562 0.03024,-8.663089 2.16,-13.497392 5.113285,-15.23438 l 0.0412,-0.02343 c 2.973808,-1.71693 8.239597,-1.162133 15.79101,3.162107 7.55139,4.324192 16.92609,12.14603 27.40041,23.162113 20.94837,22.032148 44.66177,54.997933 65.7148,91.462883 8.67318,15.02235 17.46799,31.21043 24.37697,45.77539 l 1.07032,2.28125 c 2.35298,-0.1971 4.50429,-0.39471 6.3984,-0.5918 l -1.9883,-4.28901 c -7.0171,-14.79303 -15.87692,-31.08877 -24.6054,-46.20703 C 177.70867,98.526185 153.83585,65.277836 132.38306,42.715194 121.65665,31.433863 111.99485,23.275296 103.60185,18.469093 98.356165,15.465284 93.425847,13.665423 89.035434,13.562843 Z M 228.96292,196.59403 c -2.24523,0.32266 -4.2517,0.52637 -6.19332,0.69726 l 1.66802,3.81446 c 6.58609,15.14952 11.87807,27.23339 15.61519,39.89454 4.3031,14.57896 6.38819,26.60678 6.35739,35.30857 -0.0302,8.69821 -2.18041,13.53706 -5.15229,15.25588 0,9.8e-4 0,8.7e-4 -0.0113,0.002 -2.97392,1.71693 -8.23759,1.16406 -15.78913,-3.16017 -7.55126,-4.3242 -13.36947,-7.20072 -23.84367,-18.2168 -4.50822,1.78106 -4.48169,1.57002 -6.04101,2.09571 10.72641,11.28132 18.48,16.5786 26.87301,21.38476 7.10819,4.07044 13.6306,5.91965 19.02149,4.33984 l 0.18746,0.32428 2.56252,-1.48044 c 0.0189,-0.0113 0.042,-0.0189 0.062,-0.0302 0.0227,-0.0113 0.034,-0.0265 0.0548,-0.0393 5.81669,-3.39757 8.10259,-10.8127 8.13668,-20.45314 0.034,-9.67166 -2.20059,-22.11685 -6.60741,-37.04689 -3.8798,-13.14505 -9.28728,-25.45599 -15.86917,-40.59569 z"
     style="color:#000000;font-style:normal;font-variant:normal;font-weight:normal;font-stretch:normal;font-size:medium;line-height:normal;font-family:sans-serif;font-variant-ligatures:normal;font-variant-position:normal;font-variant-caps:normal;font-variant-numeric:normal;font-variant-alternates:normal;font-feature-settings:normal;text-indent:0;text-align:start;text-decoration:none;text-decoration-line:none;text-decoration-style:solid;text-decoration-color:#000000;letter-spacing:normal;word-spacing:normal;text-transform:none;writing-mode:lr-tb;direction:ltr;text-orientation:mixed;dominant-baseline:auto;baseline-shift:baseline;text-anchor:start;white-space:normal;shape-padding:0;clip-rule:nonzero;display:inline;overflow:visible;visibility:visible;opacity:1;isolation:auto;mix-blend-mode:normal;color-interpolation:sRGB;color-interpolation-filters:linearRGB;solid-color:#000000;solid-opacity:1;vector-effect:none;fill:none;fill-opacity:1;fill-rule:nonzero;stroke:#5dc3d0;stroke-width:0.99999994;stroke-linecap:round;stroke-linejoin:miter;stroke-miterlimit:4;stroke-dasharray:none;stroke-dashoffset:0;stroke-opacity:1;paint-order:markers fill stroke;color-rendering:auto;image-rendering:auto;shape-rendering:auto;text-rendering:auto;enable-background:accumulate"
     inkscape:connector-curvature="0" />
  <path
     sodipodi:nodetypes="csccccccccccccccccccccscccccccccccccssccccc"
     inkscape:connector-curvature="0"
     id="path970-8-4-9-3-6"
     d="m 229.19729,0.50027426 c -5.16288,0.0915024 -10.67879,2.19595084 -16.2031,5.35937774 -8.83888,5.061502 -18.65367,13.398501 -29.51369,24.820313 -8.64881,9.096298 -17.63739,19.859818 -26.68751,31.86133 l -1.50969,2.046872 c 2.47661,3.584126 12.95319,16.847206 15.58,20.281247 l 3.7598,-4.986319 c 8.81669,-11.691931 17.5324,-22.11224 25.76761,-30.773439 10.3406,-10.875591 19.56238,-18.520963 26.66789,-22.58984 7.10559,-4.068892 11.14232,-4.000653 12.58791,-3.166023 l 0.034,0.01965 c 0.3137,0.185764 0.60018,0.42494 0.92768,0.820309 1.33281,1.609032 2.89931,6.561369 2.52541,14.55078 -0.3738,7.989419 -0.25626,10.884779 -4.02562,23.655603 3.95721,3.38959 7.29861,6.471265 10.33232,9.399088 3.95868,-13.412312 5.7224,-22.94312 6.16789,-32.464839 0.44561,-9.521722 -0.62169,-17.369291 -5.37301,-23.105473 -0.4351,-0.525218 -0.91609,-1.015079 -1.416,-1.486329 -0.56289,-0.693468 -1.2864,-1.538358 -2.40628,-2.726559 C 241.67751,6.9919342 232.29393,0.44544465 229.19612,0.5003952 Z m -82.61518,72.69335874 -7.33403,10.85938 c -9.54459,14.130762 -14.13339,18.914157 -27.21089,43.283197 -13.077472,24.36905 -38.293687,74.42038 -47.216774,104.65236 -4.461619,15.11596 -6.774425,27.78524 -6.73833,37.97069 0.0378,10.18548 1.021417,20.20985 8.408201,24.47463 4.576517,2.6298 10.023005,4.63884 16.296908,6.38083 v -0.002 c 6.804812,2.45753 14.596422,0.11414 22.408215,-4.35938 8.83888,-5.06151 17.29338,-11.89327 28.1534,-23.31511 -5.48323,-1.43022 -9.52793,-2.6868 -12.70371,-4.11697 -10.3406,10.87555 -14.55311,12.52528 -21.658699,16.59417 -7.105512,4.06889 -11.140309,4.0026 -12.585902,3.16796 -4.92e-4,-3e-4 0,3e-4 0,0 v -0.004 c -1.445405,-0.83867 -3.517909,-4.30012 -3.546785,-12.4803 -0.03024,-8.18801 1.980284,-19.9976 6.228473,-34.3906 8.496416,-28.78609 25.102303,-65.65611 46.052713,-101.94338 9.0065,-15.59975 17.1436,-28.73532 26.6465,-42.39453 l 1.26168,-2.066407 C 160.87972,92.20172 149.65959,77.095712 146.58611,73.193871 Z"
     style="color:#000000;font-style:normal;font-variant:normal;font-weight:normal;font-stretch:normal;font-size:medium;line-height:normal;font-family:sans-serif;font-variant-ligatures:normal;font-variant-position:normal;font-variant-caps:normal;font-variant-numeric:normal;font-variant-alternates:normal;font-feature-settings:normal;text-indent:0;text-align:start;text-decoration:none;text-decoration-line:none;text-decoration-style:solid;text-decoration-color:#000000;letter-spacing:normal;word-spacing:normal;text-transform:none;writing-mode:lr-tb;direction:ltr;text-orientation:mixed;dominant-baseline:auto;baseline-shift:baseline;text-anchor:start;white-space:normal;shape-padding:0;clip-rule:nonzero;display:inline;overflow:visible;visibility:visible;opacity:1;isolation:auto;mix-blend-mode:normal;color-interpolation:sRGB;color-interpolation-filters:linearRGB;solid-color:#000000;solid-opacity:1;vector-effect:none;fill:none;fill-opacity:1;fill-rule:nonzero;stroke:#5dc3d0;stroke-width:0.99999994;stroke-linecap:round;stroke-linejoin:miter;stroke-miterlimit:4;stroke-dasharray:none;stroke-dashoffset:0;stroke-opacity:1;paint-order:markers fill stroke;color-rendering:auto;image-rendering:auto;shape-rendering:auto;text-rendering:auto;enable-background:accumulate" />
</svg>
